# xmcd
#
# Track frame offsets: 
#        150
#        16444
#        33474
#        47387
#        66945
#        83669
#        101455
#        116969
#        136902
#        151665
#        172517
#        195052
#        212654
#        229619
#
# Disc length: 3239 seconds
#
# Revision: 0
# Processed by: cddbd v1.5.2PL0 Copyright (c) Steve Scherf et al.
# Submitted via: ExactAudioCopy v0.95b4
#
DISCID=9f0ca50e
DTITLE=Ike Turner - Risin'with the blues
DYEAR=2006
DGENRE=Blues
TTITLE0=Gimme back my wig 
TTITLE1=Caldonia 
TTITLE2=Tease me
TTITLE3=Goin' home tomorrow 
TTITLE4=Jazzy Fuzzy
TTITLE5=I don't want nobody 
TTITLE6=Jesus loves me
TTITLE7=Love like yours
TTITLE8=Senor Blues
TTITLE9=Eighteen long years
TTITLE10=Rockin' Blues
TTITLE11=After hours
TTITLE12=Big fat mama
TTITLE13=Bi polar
EXTD=
EXTT0=
EXTT1=
EXTT2=
EXTT3=
EXTT4=
EXTT5=
EXTT6=
EXTT7=
EXTT8=
EXTT9=
EXTT10=
EXTT11=
EXTT12=
EXTT13=
PLAYORDER=
